# xmcd
#
# Track frame offsets: 
#        150
#        10085
#        24048
#        37305
#        45958
#        58445
#        69032
#        82197
#        92618
#        102850
#        127218
#        145156
#        166801
#        174804
#        187903
#        200970
#        218069
#
# Disc length: 3196 seconds
#
# Revision: 0
# Processed by: cddbd v1.5.2PL0 Copyright (c) Steve Scherf et al.
# Submitted via: ExactAudioCopy v1.3
#
DISCID=e30c7a11
DTITLE=Nico Brina - That's My Way (30 Years - The Jubilee Sessions)
DYEAR=2015
DGENRE=Boogie Woogie, Piano Blues
TTITLE0=All Shook Up
TTITLE1=Charlie's Boogie
TTITLE2=She'sTthe One And Only
TTITLE3=Intermezzo Boogie No.1
TTITLE4=That's My Way
TTITLE5=It Hurts Me As Soon As You're Gone
TTITLE6=TV Commercial Love
TTITLE7=Check Out Baby
TTITLE8=Intermezzo Boogie No.2
TTITLE9=Buzz Me
TTITLE10=Barrel Of Monkeys
TTITLE11=Tip Of My Tongue
TTITLE12=Intermezzo Boogie No.3
TTITLE13=Steam Roller Boogie
TTITLE14=Rock Baby Rock
TTITLE15=Blues With A Feeling
TTITLE16=Bye Bye Song
EXTD=
EXTT0=
EXTT1=
EXTT2=
EXTT3=
EXTT4=
EXTT5=
EXTT6=
EXTT7=
EXTT8=
EXTT9=
EXTT10=
EXTT11=
EXTT12=
EXTT13=
EXTT14=
EXTT15=
EXTT16=
PLAYORDER=
